<mxfile host="app.diagrams.net" agent="Mozilla/5.0 (Windows NT 10.0; Win64; x64; rv:128.0) Gecko/20100101 Firefox/128.0" version="26.0.4">
  <diagram name="Page-1" id="JjM2Vs9nK-cicyNIIh2z">
    <mxGraphModel dx="1110" dy="575" grid="1" gridSize="10" guides="1" tooltips="1" connect="1" arrows="1" fold="1" page="1" pageScale="1" pageWidth="827" pageHeight="1169" math="0" shadow="0">
      <root>
        <mxCell id="0" />
        <mxCell id="1" parent="0" />
        <mxCell id="mFzt58fjgiqs1xDSaUat-24" value="" style="rounded=1;whiteSpace=wrap;html=1;fillColor=none;dashed=1;" vertex="1" parent="1">
          <mxGeometry x="60" y="170" width="190" height="400" as="geometry" />
        </mxCell>
        <mxCell id="mFzt58fjgiqs1xDSaUat-1" value="New Connection Manager " style="rounded=1;whiteSpace=wrap;html=1;" vertex="1" parent="1">
          <mxGeometry x="90" y="190" width="120" height="60" as="geometry" />
        </mxCell>
        <mxCell id="mFzt58fjgiqs1xDSaUat-2" value="&lt;div&gt;Client connection manager&lt;/div&gt;" style="rounded=1;whiteSpace=wrap;html=1;" vertex="1" parent="1">
          <mxGeometry x="520" y="277.5" width="110" height="45" as="geometry" />
        </mxCell>
        <mxCell id="mFzt58fjgiqs1xDSaUat-3" value="Process Scheduler" style="rounded=1;whiteSpace=wrap;html=1;" vertex="1" parent="1">
          <mxGeometry x="90" y="345" width="120" height="60" as="geometry" />
        </mxCell>
        <mxCell id="mFzt58fjgiqs1xDSaUat-9" value="" style="group" vertex="1" connectable="0" parent="1">
          <mxGeometry x="690" y="280" width="108.86" height="40" as="geometry" />
        </mxCell>
        <mxCell id="mFzt58fjgiqs1xDSaUat-4" value="Process" style="shape=parallelogram;perimeter=parallelogramPerimeter;whiteSpace=wrap;html=1;fixedSize=1;movable=1;resizable=1;rotatable=1;deletable=1;editable=1;locked=0;connectable=1;" vertex="1" parent="mFzt58fjgiqs1xDSaUat-9">
          <mxGeometry y="10" width="108.85714285714285" height="30" as="geometry" />
        </mxCell>
        <mxCell id="mFzt58fjgiqs1xDSaUat-6" value="Process" style="shape=parallelogram;perimeter=parallelogramPerimeter;whiteSpace=wrap;html=1;fixedSize=1;movable=1;resizable=1;rotatable=1;deletable=1;editable=1;locked=0;connectable=1;" vertex="1" parent="mFzt58fjgiqs1xDSaUat-9">
          <mxGeometry x="0.0014285714285051652" y="5" width="108.85714285714285" height="30" as="geometry" />
        </mxCell>
        <mxCell id="mFzt58fjgiqs1xDSaUat-7" value="Processes" style="shape=parallelogram;perimeter=parallelogramPerimeter;whiteSpace=wrap;html=1;fixedSize=1;movable=1;resizable=1;rotatable=1;deletable=1;editable=1;locked=0;connectable=1;" vertex="1" parent="mFzt58fjgiqs1xDSaUat-9">
          <mxGeometry x="0.002857142857124017" width="108.85714285714285" height="30" as="geometry" />
        </mxCell>
        <mxCell id="mFzt58fjgiqs1xDSaUat-10" style="edgeStyle=orthogonalEdgeStyle;rounded=0;orthogonalLoop=1;jettySize=auto;html=1;entryX=0.085;entryY=0.7;entryDx=0;entryDy=0;entryPerimeter=0;" edge="1" parent="1" source="mFzt58fjgiqs1xDSaUat-2" target="mFzt58fjgiqs1xDSaUat-7">
          <mxGeometry relative="1" as="geometry" />
        </mxCell>
        <mxCell id="mFzt58fjgiqs1xDSaUat-11" value="UDP connection" style="ellipse;shape=cloud;whiteSpace=wrap;html=1;" vertex="1" parent="1">
          <mxGeometry x="310" y="195" width="136" height="50" as="geometry" />
        </mxCell>
        <mxCell id="mFzt58fjgiqs1xDSaUat-12" value="TCP connection" style="ellipse;shape=cloud;whiteSpace=wrap;html=1;" vertex="1" parent="1">
          <mxGeometry x="310" y="350" width="136" height="50" as="geometry" />
        </mxCell>
        <mxCell id="mFzt58fjgiqs1xDSaUat-13" style="edgeStyle=orthogonalEdgeStyle;rounded=0;orthogonalLoop=1;jettySize=auto;html=1;entryX=0.96;entryY=0.7;entryDx=0;entryDy=0;entryPerimeter=0;endArrow=none;endFill=0;startArrow=classic;startFill=1;" edge="1" parent="1" source="mFzt58fjgiqs1xDSaUat-2" target="mFzt58fjgiqs1xDSaUat-11">
          <mxGeometry relative="1" as="geometry">
            <Array as="points">
              <mxPoint x="580" y="230" />
            </Array>
          </mxGeometry>
        </mxCell>
        <mxCell id="mFzt58fjgiqs1xDSaUat-16" style="edgeStyle=orthogonalEdgeStyle;rounded=0;orthogonalLoop=1;jettySize=auto;html=1;exitX=0.07;exitY=0.4;exitDx=0;exitDy=0;exitPerimeter=0;entryX=0.977;entryY=0.407;entryDx=0;entryDy=0;entryPerimeter=0;" edge="1" parent="1" source="mFzt58fjgiqs1xDSaUat-11" target="mFzt58fjgiqs1xDSaUat-1">
          <mxGeometry relative="1" as="geometry" />
        </mxCell>
        <mxCell id="mFzt58fjgiqs1xDSaUat-17" style="edgeStyle=orthogonalEdgeStyle;rounded=0;orthogonalLoop=1;jettySize=auto;html=1;exitX=0.07;exitY=0.4;exitDx=0;exitDy=0;exitPerimeter=0;entryX=1.001;entryY=0.405;entryDx=0;entryDy=0;entryPerimeter=0;" edge="1" parent="1" source="mFzt58fjgiqs1xDSaUat-12" target="mFzt58fjgiqs1xDSaUat-3">
          <mxGeometry relative="1" as="geometry" />
        </mxCell>
        <mxCell id="mFzt58fjgiqs1xDSaUat-21" value="" style="group" vertex="1" connectable="0" parent="1">
          <mxGeometry x="75" y="480" width="150" height="70" as="geometry" />
        </mxCell>
        <mxCell id="mFzt58fjgiqs1xDSaUat-20" value="" style="rounded=1;whiteSpace=wrap;html=1;" vertex="1" parent="mFzt58fjgiqs1xDSaUat-21">
          <mxGeometry width="150" height="70" as="geometry" />
        </mxCell>
        <mxCell id="mFzt58fjgiqs1xDSaUat-18" value="" style="sketch=0;pointerEvents=1;shadow=0;dashed=0;html=1;strokeColor=none;fillColor=#434445;aspect=fixed;labelPosition=center;verticalLabelPosition=bottom;verticalAlign=top;align=center;outlineConnect=0;shape=mxgraph.vvd.cpu;" vertex="1" parent="mFzt58fjgiqs1xDSaUat-21">
          <mxGeometry x="15" y="10" width="50" height="50" as="geometry" />
        </mxCell>
        <mxCell id="mFzt58fjgiqs1xDSaUat-19" value="" style="pointerEvents=1;shadow=0;dashed=0;html=1;strokeColor=none;fillColor=light-dark(#4495D1,#FFFFFF);labelPosition=center;verticalLabelPosition=bottom;verticalAlign=top;align=center;outlineConnect=0;shape=mxgraph.veeam.ram;" vertex="1" parent="mFzt58fjgiqs1xDSaUat-21">
          <mxGeometry x="85" y="22.399999999999977" width="48.4" height="25.2" as="geometry" />
        </mxCell>
        <mxCell id="mFzt58fjgiqs1xDSaUat-22" style="edgeStyle=orthogonalEdgeStyle;rounded=0;orthogonalLoop=1;jettySize=auto;html=1;exitX=0.25;exitY=0;exitDx=0;exitDy=0;entryX=0.192;entryY=0.967;entryDx=0;entryDy=0;entryPerimeter=0;" edge="1" parent="1" source="mFzt58fjgiqs1xDSaUat-20" target="mFzt58fjgiqs1xDSaUat-3">
          <mxGeometry relative="1" as="geometry" />
        </mxCell>
        <mxCell id="mFzt58fjgiqs1xDSaUat-23" style="edgeStyle=orthogonalEdgeStyle;rounded=0;orthogonalLoop=1;jettySize=auto;html=1;exitX=0.75;exitY=1;exitDx=0;exitDy=0;entryX=0.703;entryY=0.018;entryDx=0;entryDy=0;entryPerimeter=0;" edge="1" parent="1" source="mFzt58fjgiqs1xDSaUat-3" target="mFzt58fjgiqs1xDSaUat-20">
          <mxGeometry relative="1" as="geometry" />
        </mxCell>
        <mxCell id="mFzt58fjgiqs1xDSaUat-25" value="&lt;font style=&quot;font-size: 24px;&quot;&gt;Server&lt;/font&gt;" style="text;html=1;align=center;verticalAlign=middle;resizable=0;points=[];autosize=1;strokeColor=none;fillColor=none;" vertex="1" parent="1">
          <mxGeometry x="105" y="125" width="90" height="40" as="geometry" />
        </mxCell>
        <mxCell id="mFzt58fjgiqs1xDSaUat-26" style="edgeStyle=orthogonalEdgeStyle;rounded=0;orthogonalLoop=1;jettySize=auto;html=1;exitX=0.96;exitY=0.7;exitDx=0;exitDy=0;exitPerimeter=0;entryX=0.561;entryY=0.964;entryDx=0;entryDy=0;entryPerimeter=0;" edge="1" parent="1" source="mFzt58fjgiqs1xDSaUat-12" target="mFzt58fjgiqs1xDSaUat-2">
          <mxGeometry relative="1" as="geometry" />
        </mxCell>
        <mxCell id="mFzt58fjgiqs1xDSaUat-27" value="" style="rounded=1;whiteSpace=wrap;html=1;fillColor=none;dashed=1;" vertex="1" parent="1">
          <mxGeometry x="510" y="250" width="300" height="100" as="geometry" />
        </mxCell>
        <mxCell id="mFzt58fjgiqs1xDSaUat-28" value="&lt;font style=&quot;font-size: 24px;&quot;&gt;Client&lt;/font&gt;" style="text;html=1;align=center;verticalAlign=middle;resizable=0;points=[];autosize=1;strokeColor=none;fillColor=none;" vertex="1" parent="1">
          <mxGeometry x="620" y="205" width="80" height="40" as="geometry" />
        </mxCell>
      </root>
    </mxGraphModel>
  </diagram>
</mxfile>
